<?xml version="1.0" standalone="no"?>
<!DOCTYPE svg PUBLIC "-//W3C//DTD SVG 20010904//EN"
 "http://www.w3.org/TR/2001/REC-SVG-20010904/DTD/svg10.dtd">
<svg version="1.0" xmlns="http://www.w3.org/2000/svg"
 width="1680.000000pt" height="1680.000000pt" viewBox="0 0 1680.000000 1680.000000"
 preserveAspectRatio="xMidYMid meet">

<g transform="translate(0.000000,1680.000000) scale(0.100000,-0.100000)"
fill="#000000" stroke="none">
<path d="M6859 15299 c-1300 -88 -2492 -776 -3218 -1857 -575 -854 -816 -1890
-680 -2913 184 -1391 1055 -2605 2314 -3224 441 -217 840 -337 1350 -407 l170
-23 1615 0 1615 0 170 23 c510 70 909 190 1350 407 401 197 746 441 1072 758
720 701 1149 1589 1259 2607 23 211 23 630 0 838 -110 1001 -528 1879 -1225
2572 -731 726 -1672 1150 -2711 1220 -172 12 -2908 11 -3081 -1z m1949 -1282
l22 -23 2 -2483 3 -2483 28 -24 28 -24 365 0 366 0 29 -29 29 -29 0 -367 0
-367 -29 -29 -29 -29 -1212 0 -1212 0 -29 29 -29 29 0 367 0 367 29 29 29 29
366 0 365 0 28 24 28 24 3 2039 c2 1926 1 2040 -15 2073 -30 59 -33 60 -426
60 l-358 0 -24 25 -25 24 0 371 0 371 25 24 24 25 799 0 799 0 21 -23z m1168
12 c559 -55 1096 -274 1547 -631 131 -104 361 -334 465 -465 424 -536 642
-1160 642 -1839 0 -211 -10 -340 -41 -514 -108 -618 -393 -1159 -846 -1600
-297 -291 -592 -484 -973 -637 -154 -63 -188 -68 -225 -33 l-25 23 0 402 0
402 23 20 c12 11 63 41 112 68 535 284 924 779 1065 1357 42 172 60 323 60
506 0 249 -29 431 -107 666 -261 786 -971 1351 -1793 1427 -69 6 -138 16 -153
22 -55 20 -57 33 -57 421 l0 354 26 31 c24 29 30 31 98 31 40 0 122 -5 182
-11z m-3701 -164 l25 -24 0 -396 c0 -241 -4 -404 -10 -415 -5 -10 -58 -44
-117 -75 -616 -326 -1028 -914 -1118 -1593 -17 -131 -20 -429 -4 -552 86 -696
509 -1304 1131 -1625 48 -25 94 -55 103 -68 13 -18 15 -77 15 -417 l0 -397
-22 -20 c-41 -37 -60 -36 -179 9 -416 155 -832 438 -1141 775 -407 445 -662
995 -750 1613 -8 63 -13 198 -13 400 0 347 14 466 85 745 155 610 519 1173
1014 1568 224 179 541 360 796 457 124 46 152 49 185 15z"/>
<path d="M1490 5583 c-8 -3 -18 -11 -22 -17 -4 -6 -8 -661 -8 -1457 0 -1111 3
-1448 12 -1457 17 -17 368 -17 391 1 16 11 17 92 20 1116 2 1039 3 1104 20
1115 12 8 22 8 35 0 9 -6 472 -512 1029 -1125 l1012 -1114 197 -3 c136 -2 201
1 210 9 12 10 14 242 14 1465 l0 1454 -26 10 c-14 6 -98 10 -187 10 -131 0
-167 -3 -185 -16 l-22 -15 0 -1097 c0 -603 -4 -1103 -9 -1110 -26 -41 -49 -17
-1065 1103 -553 611 -1016 1116 -1029 1122 -23 13 -356 18 -387 6z"/>
<path d="M6180 5580 c-198 -15 -352 -59 -545 -155 -159 -79 -269 -160 -401
-297 -206 -215 -337 -474 -391 -773 -22 -125 -22 -360 1 -490 102 -572 512
-1020 1076 -1175 169 -46 252 -50 1060 -50 676 0 760 2 774 16 13 13 16 45 16
190 0 102 -4 183 -10 195 -10 19 -30 19 -763 19 -421 0 -785 5 -826 10 -230
30 -428 123 -595 280 -331 311 -425 799 -231 1207 132 280 363 476 670 570
l90 28 816 5 c671 4 819 7 832 19 15 12 17 38 17 197 0 178 -1 183 -22 198
-20 14 -106 16 -748 15 -399 -1 -768 -5 -820 -9z"/>
<path d="M9331 5579 c-586 -45 -1099 -449 -1281 -1009 -54 -166 -73 -309 -67
-505 8 -243 48 -405 150 -607 81 -160 141 -243 277 -379 222 -222 450 -346
757 -411 106 -22 121 -22 916 -26 608 -2 812 0 823 9 12 10 14 137 14 828 0
622 -3 820 -12 829 -17 17 -1429 17 -1446 0 -8 -8 -12 -67 -12 -200 0 -175 1
-188 19 -198 13 -6 192 -10 513 -10 371 0 497 -3 506 -12 9 -9 12 -114 12
-410 0 -383 -1 -398 -19 -408 -26 -14 -1048 -14 -1159 0 -182 23 -355 94 -505
206 -190 143 -326 347 -389 582 -32 122 -36 329 -9 460 83 401 367 701 769
815 75 21 95 22 895 27 712 4 819 7 827 20 13 20 13 370 0 390 -8 13 -102 15
-742 16 -403 1 -780 -2 -837 -7z"/>
<path d="M11573 5575 c-22 -16 -23 -21 -23 -199 0 -159 2 -185 17 -197 13 -12
161 -15 832 -19 l816 -5 90 -28 c365 -113 621 -369 732 -732 25 -84 27 -103
27 -275 1 -215 -13 -288 -88 -446 -62 -131 -116 -206 -221 -309 -107 -105
-228 -184 -356 -232 -178 -67 -165 -66 -809 -70 -374 -2 -590 0 -600 6 -13 9
-16 94 -20 628 l-5 618 -194 3 c-134 2 -198 -1 -207 -9 -12 -10 -14 -146 -14
-825 0 -737 2 -814 16 -829 15 -15 89 -16 828 -12 891 4 868 3 1073 68 377
119 692 388 868 737 110 219 156 414 156 663 1 178 -19 302 -71 460 -79 238
-177 397 -360 579 -182 183 -341 281 -579 360 -223 74 -212 73 -1096 77 -714
4 -792 3 -812 -12z"/>
<path d="M14938 5579 c-16 -9 -18 -30 -18 -204 0 -182 1 -195 19 -205 12 -6
92 -10 190 -10 226 0 211 -16 211 215 0 231 16 215 -212 215 -99 0 -181 -5
-190 -11z"/>
<path d="M14927 4733 c-4 -3 -7 -470 -7 -1038 0 -788 3 -1034 12 -1043 8 -8
66 -12 193 -12 164 0 184 2 198 18 16 17 17 103 17 1031 0 679 -3 1019 -10
1032 -10 18 -23 19 -204 19 -106 0 -196 -3 -199 -7z"/>
<path d="M5782 4308 c-8 -8 -12 -67 -12 -200 0 -175 1 -188 19 -198 27 -14
1405 -14 1432 0 18 10 19 23 19 195 0 101 -3 190 -6 199 -6 14 -79 16 -723 16
-544 0 -720 -3 -729 -12z"/>
<path d="M1470 1736 l0 -276 50 0 50 0 0 80 0 80 88 0 c108 0 152 12 199 53
64 56 81 142 44 222 -39 86 -89 106 -283 113 l-148 5 0 -277z m284 170 c59
-25 81 -81 54 -140 -19 -44 -54 -58 -150 -64 l-88 -5 0 112 0 111 75 0 c42 0
90 -6 109 -14z"/>
<path d="M2350 1736 l0 -276 50 0 50 0 0 80 0 80 73 0 72 0 54 -80 55 -80 53
0 c41 0 52 3 47 13 -4 6 -32 46 -61 89 l-53 76 35 22 c89 55 102 215 24 287
-48 44 -96 56 -251 61 l-148 5 0 -277z m321 146 c55 -61 30 -150 -49 -172 -20
-5 -67 -10 -104 -10 l-68 0 0 111 0 111 96 -4 c94 -3 96 -4 125 -36z"/>
<path d="M3383 1994 c-57 -21 -126 -84 -153 -141 -27 -56 -32 -156 -11 -217
19 -56 92 -130 154 -156 99 -43 239 -26 318 39 19 16 48 53 64 82 26 47 30 64
30 129 -1 118 -50 201 -149 252 -54 28 -191 35 -253 12z m204 -91 c46 -21 90
-84 98 -137 26 -170 -164 -287 -302 -187 -107 77 -100 250 12 317 49 29 138
33 192 7z"/>
<path d="M4356 1990 c-238 -93 -225 -438 19 -520 93 -31 239 -5 294 54 l21 22
-30 29 c-26 25 -34 27 -48 17 -52 -37 -81 -46 -139 -47 -52 0 -67 4 -104 30
-114 81 -109 253 9 322 37 22 52 25 111 21 55 -3 75 -9 103 -30 l35 -27 32 33
33 34 -34 26 c-76 58 -206 73 -302 36z"/>
<path d="M5117 2003 c-4 -3 -7 -127 -7 -275 l0 -268 205 0 205 0 0 45 0 45
-155 0 -156 0 3 73 3 72 133 3 132 3 0 39 0 40 -135 0 -135 0 0 70 0 70 150 0
150 0 0 45 0 45 -193 0 c-107 0 -197 -3 -200 -7z"/>
<path d="M6025 1991 c-65 -30 -88 -62 -93 -131 -7 -96 31 -131 181 -169 112
-28 144 -51 133 -96 -15 -59 -151 -74 -247 -27 -25 12 -48 22 -51 22 -10 0
-30 -69 -24 -79 16 -25 123 -53 201 -54 122 0 181 30 211 109 21 55 12 104
-26 142 -27 27 -56 39 -192 76 -67 19 -88 37 -88 76 0 72 129 89 255 34 13 -5
39 61 30 76 -11 18 -109 40 -179 40 -48 0 -84 -7 -111 -19z"/>
<path d="M6855 1998 c-80 -30 -121 -89 -112 -165 8 -76 51 -108 188 -143 46
-12 94 -28 107 -36 32 -21 30 -67 -5 -94 -40 -32 -159 -25 -226 12 l-46 26
-16 -40 c-9 -22 -15 -42 -13 -43 19 -17 97 -46 146 -55 158 -28 282 42 282
160 0 83 -38 114 -191 155 -50 13 -100 32 -110 41 -48 43 -1 105 83 112 48 3
84 -4 150 -33 13 -5 21 2 33 31 8 20 14 38 13 39 -2 1 -19 11 -38 21 -42 21
-199 30 -245 12z"/>
<path d="M7590 1735 l0 -275 50 0 50 0 0 275 0 275 -50 0 -50 0 0 -275z"/>
<path d="M8167 2003 c-4 -3 -7 -127 -7 -275 l0 -268 50 0 50 0 0 180 c0 99 3
180 8 179 4 0 72 -81 151 -180 l143 -179 44 0 44 0 -2 273 -3 272 -47 3 -48 3
0 -180 c0 -100 -3 -181 -7 -181 -5 0 -73 81 -153 180 -139 171 -147 179 -181
180 -20 0 -39 -3 -42 -7z"/>
<path d="M9274 2000 c-60 -19 -126 -73 -157 -128 -80 -143 -26 -317 119 -388
89 -43 227 -36 312 16 l32 20 0 110 0 110 -45 0 -45 0 0 -85 c0 -82 -1 -86
-26 -95 -110 -42 -221 -3 -265 95 -31 68 -19 155 29 208 62 69 199 76 284 15
15 -11 22 -8 48 17 29 27 29 29 12 48 -36 41 -93 60 -182 63 -47 2 -99 -1
-116 -6z"/>
<path d="M10724 1994 c-60 -22 -123 -80 -150 -138 -49 -105 -24 -246 57 -323
100 -94 287 -104 385 -19 l36 31 -32 30 c-26 25 -34 27 -48 17 -50 -35 -81
-46 -132 -46 -109 -1 -190 77 -190 183 0 66 18 108 63 148 61 54 176 59 240
10 l34 -26 32 33 31 32 -22 21 c-46 42 -90 57 -178 60 -58 2 -98 -2 -126 -13z"/>
<path d="M11480 1735 l0 -275 200 0 200 0 0 45 0 45 -150 0 -150 0 0 75 0 75
130 0 130 0 0 40 0 40 -130 0 -130 0 0 70 0 70 145 0 145 0 0 45 0 45 -195 0
-195 0 0 -275z"/>
<path d="M12320 1736 l0 -276 50 0 50 0 0 181 c0 106 4 178 9 175 5 -4 73 -85
151 -181 140 -173 142 -175 181 -175 l39 0 0 276 0 275 -47 -3 -48 -3 -5 -178
-5 -177 -145 177 c-143 176 -146 178 -187 181 l-43 3 0 -275z"/>
<path d="M13210 1965 l0 -45 90 0 90 0 0 -230 0 -230 50 0 50 0 0 230 0 230
90 0 90 0 0 45 0 45 -230 0 -230 0 0 -45z"/>
<path d="M14070 1735 l0 -275 205 0 205 0 0 45 0 45 -155 0 -155 0 0 75 0 75
130 0 130 0 0 40 0 40 -130 0 -130 0 0 70 0 70 150 0 150 0 0 45 0 45 -200 0
-200 0 0 -275z"/>
<path d="M14920 1736 l0 -276 50 0 50 0 0 80 0 80 73 0 72 -1 54 -79 54 -80
54 0 c41 0 52 3 47 13 -4 6 -32 46 -61 88 l-53 76 35 24 c90 62 103 213 24
286 -48 44 -96 56 -251 61 l-148 5 0 -277z m321 146 c55 -61 30 -150 -49 -172
-20 -5 -67 -10 -104 -10 l-68 0 0 111 0 111 96 -4 c94 -3 96 -4 125 -36z"/>
</g>
</svg>
